<mxfile host="app.diagrams.net" modified="2023-10-08T04:42:19.269Z" agent="Mozilla/5.0 (Windows NT 10.0; Win64; x64) AppleWebKit/537.36 (KHTML, like Gecko) Chrome/117.0.0.0 Safari/537.36" etag="J3pVWXnj3_64nIWaO9Im" version="21.2.1" type="device">
  <diagram name="Page-1" id="oAwcXMW3xr6nq97d4QfV">
    <mxGraphModel dx="1059" dy="621" grid="1" gridSize="10" guides="1" tooltips="1" connect="1" arrows="1" fold="1" page="1" pageScale="1" pageWidth="850" pageHeight="1100" math="0" shadow="0">
      <root>
        <mxCell id="0" />
        <mxCell id="1" parent="0" />
        <mxCell id="3HfiZ5XB5A89fD4BwabI-1" value="" style="ellipse;html=1;shape=startState;fillColor=#000000;strokeColor=#000000;" vertex="1" parent="1">
          <mxGeometry x="380" y="90" width="30" height="30" as="geometry" />
        </mxCell>
        <mxCell id="3HfiZ5XB5A89fD4BwabI-2" value="" style="edgeStyle=orthogonalEdgeStyle;html=1;verticalAlign=bottom;endArrow=open;endSize=8;strokeColor=#000000;rounded=0;" edge="1" source="3HfiZ5XB5A89fD4BwabI-1" parent="1">
          <mxGeometry relative="1" as="geometry">
            <mxPoint x="395" y="180" as="targetPoint" />
          </mxGeometry>
        </mxCell>
        <mxCell id="3HfiZ5XB5A89fD4BwabI-19" style="edgeStyle=orthogonalEdgeStyle;rounded=0;orthogonalLoop=1;jettySize=auto;html=1;exitX=0.5;exitY=1;exitDx=0;exitDy=0;entryX=0.495;entryY=0.589;entryDx=0;entryDy=0;entryPerimeter=0;" edge="1" parent="1" source="3HfiZ5XB5A89fD4BwabI-4" target="3HfiZ5XB5A89fD4BwabI-17">
          <mxGeometry relative="1" as="geometry" />
        </mxCell>
        <mxCell id="3HfiZ5XB5A89fD4BwabI-4" value="Log In" style="rounded=1;whiteSpace=wrap;html=1;" vertex="1" parent="1">
          <mxGeometry x="250" y="280" width="120" height="60" as="geometry" />
        </mxCell>
        <mxCell id="3HfiZ5XB5A89fD4BwabI-9" style="edgeStyle=orthogonalEdgeStyle;rounded=0;orthogonalLoop=1;jettySize=auto;html=1;exitX=0;exitY=0.5;exitDx=0;exitDy=0;entryX=1;entryY=0.5;entryDx=0;entryDy=0;" edge="1" parent="1" source="3HfiZ5XB5A89fD4BwabI-5" target="3HfiZ5XB5A89fD4BwabI-4">
          <mxGeometry relative="1" as="geometry" />
        </mxCell>
        <mxCell id="3HfiZ5XB5A89fD4BwabI-5" value="Register" style="rounded=1;whiteSpace=wrap;html=1;" vertex="1" parent="1">
          <mxGeometry x="435" y="280" width="120" height="60" as="geometry" />
        </mxCell>
        <mxCell id="3HfiZ5XB5A89fD4BwabI-7" style="edgeStyle=orthogonalEdgeStyle;rounded=0;orthogonalLoop=1;jettySize=auto;html=1;exitX=0;exitY=0.5;exitDx=0;exitDy=0;entryX=0.5;entryY=0;entryDx=0;entryDy=0;" edge="1" parent="1" source="3HfiZ5XB5A89fD4BwabI-6" target="3HfiZ5XB5A89fD4BwabI-4">
          <mxGeometry relative="1" as="geometry" />
        </mxCell>
        <mxCell id="3HfiZ5XB5A89fD4BwabI-8" style="edgeStyle=orthogonalEdgeStyle;rounded=0;orthogonalLoop=1;jettySize=auto;html=1;exitX=1;exitY=0.5;exitDx=0;exitDy=0;" edge="1" parent="1" source="3HfiZ5XB5A89fD4BwabI-6" target="3HfiZ5XB5A89fD4BwabI-5">
          <mxGeometry relative="1" as="geometry" />
        </mxCell>
        <mxCell id="3HfiZ5XB5A89fD4BwabI-6" value="Registered?" style="rhombus;whiteSpace=wrap;html=1;" vertex="1" parent="1">
          <mxGeometry x="355" y="180" width="80" height="80" as="geometry" />
        </mxCell>
        <mxCell id="3HfiZ5XB5A89fD4BwabI-26" value="" style="edgeStyle=orthogonalEdgeStyle;rounded=0;orthogonalLoop=1;jettySize=auto;html=1;" edge="1" parent="1" source="3HfiZ5XB5A89fD4BwabI-10" target="3HfiZ5XB5A89fD4BwabI-25">
          <mxGeometry relative="1" as="geometry" />
        </mxCell>
        <mxCell id="3HfiZ5XB5A89fD4BwabI-10" value="Find Professionals" style="rounded=1;whiteSpace=wrap;html=1;" vertex="1" parent="1">
          <mxGeometry x="100" y="440" width="120" height="60" as="geometry" />
        </mxCell>
        <mxCell id="3HfiZ5XB5A89fD4BwabI-35" style="edgeStyle=orthogonalEdgeStyle;rounded=0;orthogonalLoop=1;jettySize=auto;html=1;exitX=0.5;exitY=1;exitDx=0;exitDy=0;entryX=0.25;entryY=0.5;entryDx=0;entryDy=0;entryPerimeter=0;" edge="1" parent="1" source="3HfiZ5XB5A89fD4BwabI-12" target="3HfiZ5XB5A89fD4BwabI-33">
          <mxGeometry relative="1" as="geometry" />
        </mxCell>
        <mxCell id="3HfiZ5XB5A89fD4BwabI-12" value="Check Blogs" style="rounded=1;whiteSpace=wrap;html=1;" vertex="1" parent="1">
          <mxGeometry x="260" y="440" width="120" height="60" as="geometry" />
        </mxCell>
        <mxCell id="3HfiZ5XB5A89fD4BwabI-13" value="Read Articles" style="rounded=1;whiteSpace=wrap;html=1;" vertex="1" parent="1">
          <mxGeometry x="435" y="440" width="120" height="60" as="geometry" />
        </mxCell>
        <mxCell id="3HfiZ5XB5A89fD4BwabI-32" value="" style="edgeStyle=orthogonalEdgeStyle;rounded=0;orthogonalLoop=1;jettySize=auto;html=1;" edge="1" parent="1" source="3HfiZ5XB5A89fD4BwabI-14" target="3HfiZ5XB5A89fD4BwabI-31">
          <mxGeometry relative="1" as="geometry" />
        </mxCell>
        <mxCell id="3HfiZ5XB5A89fD4BwabI-14" value="Give Test" style="rounded=1;whiteSpace=wrap;html=1;" vertex="1" parent="1">
          <mxGeometry x="600" y="440" width="120" height="60" as="geometry" />
        </mxCell>
        <mxCell id="3HfiZ5XB5A89fD4BwabI-20" style="edgeStyle=orthogonalEdgeStyle;rounded=0;orthogonalLoop=1;jettySize=auto;html=1;exitX=0;exitY=0.5;exitDx=0;exitDy=0;exitPerimeter=0;entryX=0.5;entryY=0;entryDx=0;entryDy=0;" edge="1" parent="1" source="3HfiZ5XB5A89fD4BwabI-17" target="3HfiZ5XB5A89fD4BwabI-10">
          <mxGeometry relative="1" as="geometry" />
        </mxCell>
        <mxCell id="3HfiZ5XB5A89fD4BwabI-21" style="edgeStyle=orthogonalEdgeStyle;rounded=0;orthogonalLoop=1;jettySize=auto;html=1;exitX=0.25;exitY=0.5;exitDx=0;exitDy=0;exitPerimeter=0;entryX=0.5;entryY=0;entryDx=0;entryDy=0;" edge="1" parent="1" source="3HfiZ5XB5A89fD4BwabI-17" target="3HfiZ5XB5A89fD4BwabI-12">
          <mxGeometry relative="1" as="geometry" />
        </mxCell>
        <mxCell id="3HfiZ5XB5A89fD4BwabI-22" style="edgeStyle=orthogonalEdgeStyle;rounded=0;orthogonalLoop=1;jettySize=auto;html=1;exitX=0.75;exitY=0.5;exitDx=0;exitDy=0;exitPerimeter=0;entryX=0.5;entryY=0;entryDx=0;entryDy=0;" edge="1" parent="1" source="3HfiZ5XB5A89fD4BwabI-17" target="3HfiZ5XB5A89fD4BwabI-13">
          <mxGeometry relative="1" as="geometry" />
        </mxCell>
        <mxCell id="3HfiZ5XB5A89fD4BwabI-23" style="edgeStyle=orthogonalEdgeStyle;rounded=0;orthogonalLoop=1;jettySize=auto;html=1;exitX=1;exitY=0.5;exitDx=0;exitDy=0;exitPerimeter=0;entryX=0.5;entryY=0;entryDx=0;entryDy=0;" edge="1" parent="1" source="3HfiZ5XB5A89fD4BwabI-17" target="3HfiZ5XB5A89fD4BwabI-14">
          <mxGeometry relative="1" as="geometry" />
        </mxCell>
        <mxCell id="3HfiZ5XB5A89fD4BwabI-17" value="" style="shape=line;html=1;strokeWidth=6;strokeColor=#000000;" vertex="1" parent="1">
          <mxGeometry x="210" y="390" width="200" height="10" as="geometry" />
        </mxCell>
        <mxCell id="3HfiZ5XB5A89fD4BwabI-28" value="" style="edgeStyle=orthogonalEdgeStyle;rounded=0;orthogonalLoop=1;jettySize=auto;html=1;" edge="1" parent="1" source="3HfiZ5XB5A89fD4BwabI-25" target="3HfiZ5XB5A89fD4BwabI-27">
          <mxGeometry relative="1" as="geometry" />
        </mxCell>
        <mxCell id="3HfiZ5XB5A89fD4BwabI-25" value="Enter Address and Contact Details" style="rounded=1;whiteSpace=wrap;html=1;" vertex="1" parent="1">
          <mxGeometry x="100" y="580" width="120" height="60" as="geometry" />
        </mxCell>
        <mxCell id="3HfiZ5XB5A89fD4BwabI-49" style="edgeStyle=orthogonalEdgeStyle;rounded=0;orthogonalLoop=1;jettySize=auto;html=1;exitX=0.5;exitY=1;exitDx=0;exitDy=0;entryX=0;entryY=0.5;entryDx=0;entryDy=0;entryPerimeter=0;" edge="1" parent="1" source="3HfiZ5XB5A89fD4BwabI-27" target="3HfiZ5XB5A89fD4BwabI-41">
          <mxGeometry relative="1" as="geometry" />
        </mxCell>
        <mxCell id="3HfiZ5XB5A89fD4BwabI-27" value="Rate your experience" style="rounded=1;whiteSpace=wrap;html=1;" vertex="1" parent="1">
          <mxGeometry x="100" y="720" width="120" height="60" as="geometry" />
        </mxCell>
        <mxCell id="3HfiZ5XB5A89fD4BwabI-51" style="edgeStyle=orthogonalEdgeStyle;rounded=0;orthogonalLoop=1;jettySize=auto;html=1;exitX=0.5;exitY=1;exitDx=0;exitDy=0;entryX=1;entryY=0.5;entryDx=0;entryDy=0;entryPerimeter=0;" edge="1" parent="1" source="3HfiZ5XB5A89fD4BwabI-31" target="3HfiZ5XB5A89fD4BwabI-41">
          <mxGeometry relative="1" as="geometry" />
        </mxCell>
        <mxCell id="3HfiZ5XB5A89fD4BwabI-31" value="View Results and Rate Test" style="rounded=1;whiteSpace=wrap;html=1;" vertex="1" parent="1">
          <mxGeometry x="600" y="580" width="120" height="60" as="geometry" />
        </mxCell>
        <mxCell id="3HfiZ5XB5A89fD4BwabI-38" style="edgeStyle=orthogonalEdgeStyle;rounded=0;orthogonalLoop=1;jettySize=auto;html=1;exitX=0.25;exitY=0.5;exitDx=0;exitDy=0;exitPerimeter=0;entryX=0.5;entryY=0;entryDx=0;entryDy=0;" edge="1" parent="1" source="3HfiZ5XB5A89fD4BwabI-33" target="3HfiZ5XB5A89fD4BwabI-37">
          <mxGeometry relative="1" as="geometry" />
        </mxCell>
        <mxCell id="3HfiZ5XB5A89fD4BwabI-39" style="edgeStyle=orthogonalEdgeStyle;rounded=0;orthogonalLoop=1;jettySize=auto;html=1;exitX=0.75;exitY=0.5;exitDx=0;exitDy=0;exitPerimeter=0;" edge="1" parent="1" source="3HfiZ5XB5A89fD4BwabI-33" target="3HfiZ5XB5A89fD4BwabI-36">
          <mxGeometry relative="1" as="geometry" />
        </mxCell>
        <mxCell id="3HfiZ5XB5A89fD4BwabI-33" value="" style="shape=line;html=1;strokeWidth=6;strokeColor=#000000;" vertex="1" parent="1">
          <mxGeometry x="270" y="570" width="200" height="10" as="geometry" />
        </mxCell>
        <mxCell id="3HfiZ5XB5A89fD4BwabI-50" style="edgeStyle=orthogonalEdgeStyle;rounded=0;orthogonalLoop=1;jettySize=auto;html=1;exitX=0.5;exitY=1;exitDx=0;exitDy=0;entryX=0.75;entryY=0.5;entryDx=0;entryDy=0;entryPerimeter=0;" edge="1" parent="1" source="3HfiZ5XB5A89fD4BwabI-36" target="3HfiZ5XB5A89fD4BwabI-41">
          <mxGeometry relative="1" as="geometry" />
        </mxCell>
        <mxCell id="3HfiZ5XB5A89fD4BwabI-36" value="Write Blog" style="rounded=1;whiteSpace=wrap;html=1;" vertex="1" parent="1">
          <mxGeometry x="420" y="640" width="120" height="60" as="geometry" />
        </mxCell>
        <mxCell id="3HfiZ5XB5A89fD4BwabI-48" style="edgeStyle=orthogonalEdgeStyle;rounded=0;orthogonalLoop=1;jettySize=auto;html=1;exitX=0.5;exitY=1;exitDx=0;exitDy=0;entryX=0.25;entryY=0.5;entryDx=0;entryDy=0;entryPerimeter=0;" edge="1" parent="1" source="3HfiZ5XB5A89fD4BwabI-37" target="3HfiZ5XB5A89fD4BwabI-41">
          <mxGeometry relative="1" as="geometry" />
        </mxCell>
        <mxCell id="3HfiZ5XB5A89fD4BwabI-37" value="Read Blog" style="rounded=1;whiteSpace=wrap;html=1;" vertex="1" parent="1">
          <mxGeometry x="260" y="640" width="120" height="60" as="geometry" />
        </mxCell>
        <mxCell id="3HfiZ5XB5A89fD4BwabI-40" value="" style="ellipse;html=1;shape=endState;fillColor=#000000;strokeColor=#000000;" vertex="1" parent="1">
          <mxGeometry x="380" y="950" width="30" height="30" as="geometry" />
        </mxCell>
        <mxCell id="3HfiZ5XB5A89fD4BwabI-53" value="" style="edgeStyle=orthogonalEdgeStyle;rounded=0;orthogonalLoop=1;jettySize=auto;html=1;" edge="1" parent="1" source="3HfiZ5XB5A89fD4BwabI-41" target="3HfiZ5XB5A89fD4BwabI-40">
          <mxGeometry relative="1" as="geometry" />
        </mxCell>
        <mxCell id="3HfiZ5XB5A89fD4BwabI-41" value="" style="shape=line;html=1;strokeWidth=6;strokeColor=#000000;" vertex="1" parent="1">
          <mxGeometry x="295" y="870" width="200" height="10" as="geometry" />
        </mxCell>
      </root>
    </mxGraphModel>
  </diagram>
</mxfile>
